<?xml version="1.0" encoding="utf-8"?>
<!-- Generator: Adobe Illustrator 24.3.0, SVG Export Plug-In . SVG Version: 6.00 Build 0)  -->
<svg version="1.1" id="logo" xmlns="http://www.w3.org/2000/svg" xmlns:xlink="http://www.w3.org/1999/xlink" x="0px" y="0px"
	 viewBox="0 0 1454.62 293.02" style="enable-background:new 0 0 1454.62 293.02;" xml:space="preserve">
<style type="text/css">
	.st0{fill:#FFFF00;}
</style>
<path class="st0" d="M1451.63,34.14c-2.35-15.41-16.59-25.27-30.78-21.49l-13.03,3.79c-14.94,4.35-30.3,6.28-45.79,5.72
	C1267.4,18.75,906.5,6.33,714.19,8.36C495.69,10.68,201.4,21.92,98.23,26.08C86.96,26.53,76,23.78,65.25,20.13
	c-2.97-1.01-6.14-1.55-9.43-1.54l-9.42,0.05c-14.58,0.07-26.91,10.89-30.47,25.98C9.88,70.26-0.49,96.42,0,154.05
	c0.36,42.23,10.5,88.72,19.89,117.57c5.25,16.14,21.19,25.29,36.78,21.41l7.5-1.87c3.38-0.84,6.52-2.27,9.34-4.15
	c8.75-5.84,19.05-8.26,29.31-9.44c109.51-12.61,434.41-48.24,618.19-49.14c195-0.96,546.2,38.06,632.61,44.97l9.35,0.1
	c4.08,0.04,8.12,0.97,11.86,2.73l9.18,4.32c12.03,5.53,25.92,0.27,32.05-12.08c8.79-17.7,20.39-48.45,29.44-98.62
	C1457.47,103.48,1455.51,59.59,1451.63,34.14z"/>
<path d="M928.2,176.5c-5.25,0-9.5,4.25-9.5,9.5c0,0.03-0.12,2.78-1.38,5.29c-1.06,2.12-2.86,4.28-8.19,4.28
	c-3.05,0-4.35-0.89-5.09-1.72c-10.32-11.35-0.02-58.35-5.87-82.99c-6.88-29-28.33-45.38-59.5-46.22
	c-32.74-0.89-47.63,23.5-48.25,24.54c-0.27,0.45-2.4,3.67-2.4,8.97c0,9.74,7.89,17.63,17.63,17.63s17.63-7.89,17.63-17.63
	c0-3.94-1.31-7.57-3.5-10.51c4.75-2.42,10.84-4.21,18.39-4.01c13.08,0.35,40.16,9.36,41.51,31.53
	c0.72,11.87-14.52,17.67-42.41,17.04c-46.5-1.05-55.62,26.16-57.31,34.51c-2.11,10.47,0.63,21.01,7.73,29.68
	c9.45,11.54,25.25,18.16,43.37,18.16c21.18,0,39.45-8.96,51.79-21.52c1.54,5.49,3.91,10.24,7.52,13.99
	c4.75,4.93,11.24,7.53,18.77,7.53c20.96,0,28.57-17.09,28.57-28.57C937.7,180.75,933.44,176.5,928.2,176.5z M831.04,195.57
	c-12.21,0-22.93-4.19-28.67-11.2c-2.42-2.96-5.04-7.77-3.81-13.89c2.53-12.55,16.84-19.77,38.26-19.28
	c18.91,0.42,33.64-2.09,44.08-7.45c-0.07,2.26-0.15,4.53-0.24,6.79c-0.11,2.87-0.21,5.71-0.29,8.52
	C878.36,176.21,857.12,195.57,831.04,195.57z"/>
<path d="M745.98,190.8h-22.34v-76.69c0-10.07,0-40.7-29.1-47.95c-17.59-4.38-35.69,1.06-52.33,15.72
	c-4.17,3.67-8.18,7.93-11.92,12.56V9.5c0-5.25-4.25-9.5-9.5-9.5h-31.78c-5.25,0-9.5,4.25-9.5,9.5s4.25,9.5,9.5,9.5h22.28v171.8
	h-22.32c-5.25,0-9.5,4.25-9.5,9.5s4.25,9.5,9.5,9.5h63.64c5.25,0,9.5-4.25,9.5-9.5s-4.25-9.5-9.5-9.5h-22.32v-59.4
	c9.25-23.11,34.01-53.18,59.67-46.8c12.19,3.03,14.69,13.99,14.69,29.51v76.69h-22.3c-5.25,0-9.5,4.25-9.5,9.5s4.25,9.5,9.5,9.5
	h63.64c5.25,0,9.5-4.25,9.5-9.5S751.22,190.8,745.98,190.8z"/>
<path d="M558.11,168.51c-0.31-5.22-4.77-9.2-10-8.91c-5.23,0.29-9.23,4.76-8.97,9.99c0.14,2.75-0.18,11-3.32,16.01
	c-3.75,5.99-8.11,9.97-17.19,9.97c-6.84,0-12.11-2.65-16.11-8.11c-3.73-5.09-4.44-12.67-4.39-15.11c0-0.09,0-0.18,0-0.28V88.41
	h45.72c5.25,0,9.5-4.25,9.5-9.5s-4.25-9.5-9.5-9.5h-45.72V14.27c0-5.25-4.25-9.5-9.5-9.5s-9.5,4.25-9.5,9.5v55.14H433.4
	c-5.25,0-9.5,4.25-9.5,9.5s4.25,9.5,9.5,9.5h45.73v83.55c-0.04,2.21,0.04,15.77,8.06,26.73c7.61,10.39,18.48,15.88,31.44,15.88
	c14.43,0,25.32-6.17,33.29-18.88C558.84,184.65,558.21,170.13,558.11,168.51z"/>
<path d="M1113.72,176.96c-5.25,0-9.5,4.25-9.5,9.5c0,0.02-0.14,2.55-1.36,4.83c-1.06,1.99-3.05,4.28-9.01,4.28
	c-6.45,0-8.04-2.76-8.64-3.8c-1.12-1.95-1.41-4.32-1.44-5.17c0-0.07,0-0.01,0-0.15V78.91c0-5.25-4.25-9.5-9.5-9.5h-31.78
	c-5.25,0-9.5,4.25-9.5,9.5s4.25,9.5,9.5,9.5h22.28v53.58c0,17.65-7.15,32.96-20.13,43.1c-11.67,9.12-26.42,12.63-39.46,9.38
	c-13.61-3.39-14.69-12.74-14.69-24.61V78.91c0-5.25-4.25-9.5-9.5-9.5c-0.08,0-0.15,0.01-0.23,0.01c-0.08,0-0.15-0.01-0.23-0.01
	h-31.78c-5.25,0-9.5,4.25-9.5,9.5s4.25,9.5,9.5,9.5h22.74v81.45c0,9.79-0.05,36,29.1,43.05c19.59,4.74,38.79,0.05,55.75-12.85
	c3.29-2.5,6.24-5.33,8.95-8.31c0.78,4.17,2.69,9.94,7.4,14.74c3.61,3.69,10.2,8.08,21.15,8.08c21.55,0,29.37-16.81,29.37-28.11
	C1123.22,181.21,1118.97,176.96,1113.72,176.96z"/>
<path d="M205.96,176.5c-5.25,0-9.5,4.25-9.5,9.5c0,0.03-0.12,2.78-1.38,5.29c-1.06,2.12-2.86,4.28-8.19,4.28
	c-3.05,0-4.35-0.89-5.09-1.72c-10.32-11.35-0.02-58.35-5.87-82.99c-6.88-29-28.33-45.38-59.5-46.22
	c-32.74-0.89-47.63,23.5-48.25,24.54c-0.27,0.45-2.4,3.67-2.4,8.97c0,9.74,7.89,17.63,17.63,17.63s17.63-7.89,17.63-17.63
	c0-3.94-1.31-7.57-3.5-10.51c4.75-2.42,10.84-4.21,18.39-4.01c13.08,0.35,40.16,9.36,41.51,31.53
	c0.72,11.87-14.52,17.67-42.41,17.04c-46.5-1.05-55.62,26.16-57.31,34.51c-2.11,10.47,0.63,21.01,7.73,29.68
	c9.45,11.54,25.25,18.16,43.37,18.16c21.18,0,39.45-8.96,51.79-21.52c1.54,5.49,3.91,10.24,7.52,13.99
	c4.75,4.93,11.24,7.53,18.77,7.53c20.96,0,28.57-17.09,28.57-28.57C215.46,180.75,211.21,176.5,205.96,176.5z M108.81,195.57
	c-12.21,0-22.93-4.19-28.67-11.2c-2.42-2.96-5.04-7.77-3.81-13.89c2.53-12.55,16.84-19.77,38.26-19.28
	c18.91,0.42,33.64-2.09,44.08-7.45c-0.07,2.26-0.15,4.53-0.24,6.79c-0.11,2.87-0.21,5.71-0.29,8.52
	C156.13,176.21,134.89,195.57,108.81,195.57z"/>
<path d="M395.49,80.24c-5.28-6.51-17.89-17.17-43.11-15.58C335.97,65.7,322.15,74.75,312.12,84v-5.1c0-5.25-4.25-9.5-9.5-9.5H247.4
	c-5.25,0-9.5,4.25-9.5,9.5s4.25,9.5,9.5,9.5h45.73V190.8H247.4c-5.25,0-9.5,4.25-9.5,9.5s4.25,9.5,9.5,9.5h110.45
	c5.25,0,9.5-4.25,9.5-9.5s-4.25-9.5-9.5-9.5h-45.73v-78.1c4.8-6.81,21.19-27.79,41.46-29.08c12.71-0.81,20.15,2.32,24.47,5.9
	c-6.17,2.74-10.48,8.92-10.48,16.1c0,9.74,7.89,17.63,17.63,17.63c9.43,0,16.63-7.1,18.04-16.8
	C404.48,97.97,401.77,87.98,395.49,80.24z"/>
<circle cx="1362.12" cy="96.12" r="26.71"/>
<circle cx="1362.12" cy="183.13" r="26.71"/>
<path d="M1265.72,110.25c0,3.58-1.82,6.97-5.17,8.69c-4.66,2.39-10.38,0.54-12.77-4.11c-0.24-0.47-15.43-29.09-40.76-31.43
	c-13.69-1.26-24.95,1.69-31.71,8.3c-4.08,4-6.13,9.12-5.75,14.43c0.39,5.57,1.21,17.15,39.63,21.95
	c34.76,4.34,56.43,19.24,59.45,40.88c1.55,11.11-1.97,21.86-9.94,30.28c-9.51,10.05-23.88,15.4-40.98,15.4
	c-2.37,0-4.79-0.1-7.26-0.31c-18.8-1.58-33.14-10.34-43.18-19.42l0,5.14c0,5.25-4.25,9.5-9.5,9.5s-9.5-4.25-9.5-9.5l0.01-31.24
	c0-3.96,1.66-7.15,5.05-8.94c4.64-2.45,10.39-0.67,12.84,3.97c0.14,0.26,15.91,29.03,45.87,31.55c14.2,1.19,26.17-2.17,32.84-9.22
	c3.97-4.19,5.67-9.23,4.92-14.58c-1.72-12.29-17.79-21.51-42.99-24.66c-23.14-2.89-54.15-10.12-56.23-39.46
	c-0.78-10.96,3.28-21.39,11.42-29.35c10.81-10.58,27.42-15.43,46.74-13.65c16.04,1.48,28.74,9.64,37.97,18.35V78.7
	c0-5.25,4.25-9.5,9.5-9.5s9.5,4.25,9.5,9.5L1265.72,110.25z"/>
</svg>
