<svg xmlns="http://www.w3.org/2000/svg" viewBox="0 0 537.77 130.73"><defs><style>.cls-1{fill:none;stroke:#000;stroke-miterlimit:10;stroke-width:7px;}.cls-2{fill:#840b55;}.cls-3{fill:#f7b32b;}.cls-4{fill:#1de4a6;}</style></defs><g id="Layer_2" data-name="Layer 2"><g id="Layer_1-2" data-name="Layer 1"><line class="cls-1" x1="29.91" y1="66.25" x2="101.73" y2="29.56"/><line class="cls-1" x1="147.25" y1="72.03" x2="101.73" y2="29.56"/><path d="M143.19,7V115.38H34.81V7H143.19m7-7H27.81V122.38H150.19V0Z"/><circle class="cls-2" cx="29.91" cy="66.25" r="29.91"/><circle class="cls-3" cx="147.25" cy="72.03" r="18.22"/><circle class="cls-4" cx="101.73" cy="29.56" r="13.86"/><path d="M201.18,53.47l-11.93-19v19h-9.34V7.1h13.32c10.73,0,17,6.16,17,14.57,0,6.5-4,11.53-10.33,13.45l12.52,18.35ZM189.25,29.82h2.85c5.37,0,8.55-3.11,8.55-7.55s-3.18-7.35-8.55-7.35h-2.85Z"/><path d="M216,12.8a5.53,5.53,0,0,1,11.06,0,5.53,5.53,0,0,1-11.06,0Zm.92,11.06L226,22.73V53.47h-9.08Z"/><path d="M231,51.61,232,44.92a17,17,0,0,0,8.08,2.59c2.26,0,3.58-1.06,3.58-2.78,0-1.33-.73-2.32-3.64-3.18l-1.19-.47c-4.57-1.59-7.29-4.77-7.29-9.34,0-5.3,4.17-9.27,10.67-9.27a22.81,22.81,0,0,1,8.94,2.05l-1.13,6.76a17.73,17.73,0,0,0-7.42-2.19c-2,0-3,1.06-3,2.39s.66,2.12,3.12,3l1.32.46c5.36,1.86,8.08,4.9,8.08,9.61,0,5.83-4.44,9.8-11.19,9.8A20.93,20.93,0,0,1,231,51.61Z"/><path d="M275.7,53.47l-9.54-14v14h-9V6.64l9-1.13V36.25l9.21-12.92h10.39L274.84,37.77l11.52,15.7Z"/><path d="M220.25,115.3,218,93.1l-14,23.12L190,93.1l-2.25,22.2h-9.41l5.37-48.89L204,99.73l20.34-33.32,5.37,48.89Z"/><path d="M252.45,115.3l-.27-2a11.3,11.3,0,0,1-7.68,2.85c-6.3,0-11.26-4.64-11.26-10.73s4.83-10.67,11.52-10.67A12.62,12.62,0,0,1,251.65,97V95.89c0-3.31-1.66-5-6.56-5a22.85,22.85,0,0,0-7.22,1.26l1.06-6.56a31.21,31.21,0,0,1,7.89-1.06c8.54,0,13.24,3.58,13.24,10.87v14.5l.27,5.44Zm-.53-10.07a4.83,4.83,0,0,0-5.1-4.71,4.71,4.71,0,1,0,0,9.41A4.82,4.82,0,0,0,251.92,105.23Z"/><path d="M295.24,96.81V115.3h-9.08V97.94c0-3.71-2.18-5.83-5.36-5.83-3.38,0-5.77,2.39-5.77,6.16v17h-9V85.69l8.74-1.06V88.2a11.94,11.94,0,0,1,9.14-3.84C291.06,84.36,295.24,89.2,295.24,96.81Z"/><path d="M318,115.3l-.27-2a11.28,11.28,0,0,1-7.68,2.85c-6.29,0-11.26-4.64-11.26-10.73s4.84-10.67,11.53-10.67A12.62,12.62,0,0,1,317.2,97V95.89c0-3.31-1.65-5-6.55-5a22.8,22.8,0,0,0-7.22,1.26l1.06-6.56a31.13,31.13,0,0,1,7.88-1.06c8.54,0,13.25,3.58,13.25,10.87v14.5l.26,5.44Zm-.53-10.07a4.82,4.82,0,0,0-5.1-4.71,4.71,4.71,0,1,0,0,9.41A4.81,4.81,0,0,0,317.47,105.23Z"/><path d="M362.45,84.63v29.61c0,9.87-6.69,16.49-17,16.49a23.23,23.23,0,0,1-14-4.64l1.59-7.42c4.1,3.32,7.94,4.64,11.72,4.64,6.23,0,9.08-3.84,9.08-9.41v-2.58a12.42,12.42,0,0,1-9.41,4,15.18,15.18,0,0,1-14.9-15.5c0-8.74,6.75-15.57,14.9-15.57a12.37,12.37,0,0,1,9.41,4.11V85.69ZM354,99.86a7.89,7.89,0,1,0-7.88,8A7.92,7.92,0,0,0,354,99.86Z"/><path d="M393.91,105.36l2.58,6.63a21.61,21.61,0,0,1-13.64,5c-9.61,0-16.69-7-16.69-15.9a15.82,15.82,0,0,1,16.23-16c7.88,0,14.3,5.16,15.1,14.31l-22,7.08a8.58,8.58,0,0,0,7.42,3.65C386.36,110.2,390.07,108.81,393.91,105.36ZM374,100.13l14.64-4.77a6.93,6.93,0,0,0-6.23-3.44C377.88,91.92,374.5,95.36,374,100.13Z"/><path d="M448.45,97.21v19h-9V98.34c0-3.44-1.92-5.37-4.64-5.37-2.92,0-5,2.19-5,5.7v17.49h-9.07V98.34c0-3.44-1.86-5.37-4.57-5.37-2.92,0-5,2.19-5,5.7v17.49h-9V86.55l8.75-1.06v3.58a10.48,10.48,0,0,1,8.41-3.84,9.45,9.45,0,0,1,8.41,4.37,12,12,0,0,1,9.74-4.37C444.48,85.23,448.45,89.93,448.45,97.21Z"/><path d="M479.42,105.36,482,112a21.61,21.61,0,0,1-13.64,5c-9.61,0-16.69-7-16.69-15.9a15.82,15.82,0,0,1,16.22-16c7.89,0,14.31,5.16,15.11,14.31l-22,7.08a8.61,8.61,0,0,0,7.42,3.65C471.87,110.2,475.58,108.81,479.42,105.36Zm-19.87-5.23,14.64-4.77A6.93,6.93,0,0,0,468,91.92C463.39,91.92,460,95.36,459.55,100.13Z"/><path d="M515.1,97.68v18.48H506V98.8c0-3.71-2.19-5.83-5.37-5.83-3.38,0-5.76,2.39-5.76,6.17v17h-9V86.55l8.74-1.06v3.58a11.94,11.94,0,0,1,9.14-3.84C510.93,85.23,515.1,90.06,515.1,97.68Z"/><path d="M530,93.31v11.32c0,2.65,1.39,4.18,4,4.18a11.88,11.88,0,0,0,3.84-.8v7.55a15.52,15.52,0,0,1-6,1.13c-7.16,0-10.8-4.24-10.8-10.93V93.31h-4.7L517.37,86H521V80.39l9-4.57V86h7.81v7.29Z"/></g></g></svg>