<?xml version="1.0" encoding="utf-8"?>
<!-- Generator: Adobe Illustrator 25.2.1, SVG Export Plug-In . SVG Version: 6.00 Build 0)  -->
<svg version="1.1" id="Layer_1" xmlns="http://www.w3.org/2000/svg" xmlns:xlink="http://www.w3.org/1999/xlink" x="0px" y="0px"
	 viewBox="0 0 707.5 289.9" style="enable-background:new 0 0 707.5 289.9;" xml:space="preserve">
<style type="text/css">
	.st0{fill:#F7B32B;}
	.st1{fill:#1DE4A6;}
	.st2{enable-background:new    ;}
	.st3{fill:none;stroke:#000000;stroke-width:7;stroke-miterlimit:10;}
	.st4{fill:#840B55;}
	.st5{fill:#969696;}
</style>
<circle class="st0" cx="72.1" cy="71.1" r="18.2"/>
<circle class="st1" cx="18.3" cy="46.9" r="13.9"/>
<g class="st2">
	<path d="M15.8,233.3c0,4-3.1,6.9-7.1,6.9c-4,0-6.9-2.8-6.9-7v-14.7l2.1-0.4v10.7c1.1-1.5,2.9-2.4,5-2.4
		C12.7,226.4,15.8,229.3,15.8,233.3z M13.6,233.3c0-2.8-2.1-5-4.8-5c-2.8,0-4.9,2.2-4.9,5c0,2.8,2,4.9,4.8,4.9
		S13.6,236.1,13.6,233.3z"/>
	<path d="M26.5,239.9l-0.1-0.9c-0.9,0.8-2,1.2-3.3,1.2c-2.8,0-5-2.1-5-4.8c0-2.7,2.2-4.8,5-4.8c1.3,0,2.3,0.5,3.1,1.1v-0.8
		c0-1.7-0.7-2.6-2.9-2.6c-1.1,0-2.2,0.2-3.2,0.6l0.4-1.9c1-0.3,1.9-0.5,2.9-0.5c3.2,0,4.9,1.6,4.9,4.2v6.7l0.1,2.5H26.5z
		 M26.5,235.4c0-1.7-1.4-3-3.1-3c-1.7,0-3.1,1.3-3.1,3s1.4,3,3.1,3C25.1,238.4,26.5,237,26.5,235.4z"/>
	<path d="M32.8,218.5l2.1-0.4v21.8h-2.1V218.5z"/>
	<path d="M46.9,239.9l-0.1-0.9c-0.9,0.8-2,1.2-3.3,1.2c-2.8,0-5-2.1-5-4.8c0-2.7,2.2-4.8,5-4.8c1.3,0,2.3,0.5,3.1,1.1v-0.8
		c0-1.7-0.7-2.6-2.9-2.6c-1.1,0-2.2,0.2-3.2,0.6l0.4-1.9c1-0.3,1.9-0.5,2.9-0.5c3.2,0,4.9,1.6,4.9,4.2v6.7l0.1,2.5H46.9z
		 M46.8,235.4c0-1.7-1.4-3-3.1-3c-1.7,0-3.1,1.3-3.1,3s1.4,3,3.1,3C45.4,238.4,46.8,237,46.8,235.4z"/>
	<path d="M64.5,232v7.9h-2.1v-7.8c0-2.5-1.4-3.8-3.4-3.8c-2.2,0-3.8,1.6-3.8,4.1v7.5h-2.1v-13l2-0.4v1.8c1-1.2,2.5-1.9,4.2-1.9
		C62.2,226.4,64.5,228.4,64.5,232z"/>
</g>
<g class="st2">
	<path d="M67.7,233.3c0-3.8,3.1-6.9,7-6.9c1.1,0,2.3,0.3,3.5,0.8l-0.4,2c-1-0.6-2-0.9-3.1-0.9c-2.8,0-4.8,2.2-4.8,5s2,4.9,4.8,4.9
		c1.2,0,2.3-0.4,3.2-1l0.4,2.1c-1.1,0.5-2.3,0.9-3.6,0.9C70.9,240.2,67.7,237.1,67.7,233.3z"/>
</g>
<g class="st2">
	<path d="M92.4,235.8l0.8,1.9c-1.6,1.6-3.7,2.5-5.8,2.5c-4.1,0-7-3-7-6.9c0-3.9,3.1-6.9,7-6.9c3.2,0,5.7,2.1,6.2,5.5l-10.7,3.5
		c0.7,1.7,2.4,2.9,4.6,2.9C89.3,238.3,91,237.5,92.4,235.8z M82.4,233.3v0.1l8.6-2.8c-0.6-1.4-2-2.3-3.8-2.3
		C84.6,228.3,82.4,230.5,82.4,233.3z"/>
</g>
<line class="st3" x1="291.6" y1="71.5" x2="363.4" y2="34.8"/>
<line class="st3" x1="409" y1="77.3" x2="363.4" y2="34.8"/>
<circle class="st4" cx="291.6" cy="71.5" r="29.9"/>
<circle class="st0" cx="409" cy="77.3" r="18.2"/>
<circle class="st1" cx="363.4" cy="34.8" r="13.9"/>
<g class="st2">
	<path d="M332.5,218.1v21.8h-2.1v-2c-1.1,1.4-2.9,2.3-4.9,2.3c-3.7,0-6.8-3-6.8-6.9s3.1-6.9,6.8-6.9c2,0,3.7,0.9,4.9,2.2v-10.1
		L332.5,218.1z M330.5,233.3c0-2.8-2.1-5-4.8-5c-2.7,0-4.8,2.2-4.8,5s2.1,4.9,4.8,4.9C328.4,238.2,330.5,236.1,330.5,233.3z"/>
	<path d="M344.3,239.9l-0.1-0.9c-0.9,0.8-2,1.2-3.3,1.2c-2.8,0-5-2.1-5-4.8c0-2.7,2.2-4.8,5-4.8c1.3,0,2.3,0.5,3.1,1.1v-0.8
		c0-1.7-0.7-2.6-2.9-2.6c-1.1,0-2.2,0.2-3.2,0.6l0.4-1.9c1-0.3,1.9-0.5,2.9-0.5c3.2,0,4.9,1.6,4.9,4.2v6.7l0.1,2.5H344.3z
		 M344.3,235.4c0-1.7-1.4-3-3.1-3c-1.7,0-3.1,1.3-3.1,3s1.4,3,3.1,3C342.9,238.4,344.3,237,344.3,235.4z"/>
	<path d="M353,228.6v7.5c0,1.4,0.8,2.1,1.9,2.1c0.7,0,1.5-0.2,1.9-0.4v2c-0.5,0.2-1.3,0.4-2.1,0.4c-2.3,0-3.8-1.4-3.8-3.9v-7.6H349
		l0.4-1.9h1.6v-2.9l2.1-1.3v4.2h3.8v1.9H353z"/>
	<path d="M367.5,239.9l-0.1-0.9c-0.9,0.8-2,1.2-3.3,1.2c-2.8,0-5-2.1-5-4.8c0-2.7,2.2-4.8,5-4.8c1.3,0,2.3,0.5,3.2,1.1v-0.8
		c0-1.7-0.7-2.6-2.9-2.6c-1.1,0-2.2,0.2-3.2,0.6l0.4-1.9c1-0.3,1.9-0.5,2.9-0.5c3.2,0,4.9,1.6,4.9,4.2v6.7l0.1,2.5H367.5z
		 M367.4,235.4c0-1.7-1.4-3-3.2-3c-1.7,0-3.1,1.3-3.1,3s1.4,3,3.1,3C366,238.4,367.4,237,367.4,235.4z"/>
</g>
<path d="M695.7,7v108.4H587.3V7H695.7 M702.7,0H580.3v122.4h122.4V0z"/>
<g class="st2">
	<path d="M629.8,196.5v2.1c-3,0-4.5,1.4-4.5,4.4v6.9h-2.1v-13l2-0.4v2.2C626.1,197.3,627.6,196.5,629.8,196.5z"/>
	<path d="M632.4,191.6c0-0.8,0.7-1.5,1.5-1.5c0.8,0,1.5,0.7,1.5,1.5c0,0.8-0.7,1.5-1.5,1.5C633,193.1,632.4,192.4,632.4,191.6z
		 M632.8,196.9l2.1-0.4v13.4h-2.1V196.9z"/>
	<path d="M638.6,208.8l0.4-1.9c1.3,0.9,2.5,1.4,3.8,1.4c1.3,0,2.2-0.8,2.2-2.1c0-0.9-0.4-1.6-2.4-2.2l-0.5-0.2
		c-2.1-0.7-3.1-2.1-3.1-3.9c0-2.1,1.6-3.6,4-3.6c1.2,0,2.5,0.4,3.6,1l-0.4,1.9c-1.2-0.8-2.4-1.1-3.2-1.1c-1.3,0-2,0.8-2,1.7
		c0,0.8,0.5,1.4,2.2,2l0.5,0.2c2.2,0.7,3.4,2.1,3.4,4c0,2.3-1.7,3.9-4.3,3.9C641.4,210.2,639.8,209.7,638.6,208.8z"/>
</g>
<g class="st2">
	<path d="M658.6,209.9l-5.6-6.7v6.7h-2.1v-21.4l2.1-0.4v14.7l5.3-6.1h2.8l-5.8,6.3l6.1,6.9H658.6z"/>
</g>
<g class="st2">
	<path d="M587.7,245.9l-0.1-0.9c-0.9,0.8-2,1.2-3.3,1.2c-2.8,0-4.9-2.1-4.9-4.8c0-2.7,2.2-4.8,4.9-4.8c1.3,0,2.3,0.5,3.2,1.1v-0.8
		c0-1.7-0.7-2.6-2.9-2.6c-1.1,0-2.2,0.2-3.2,0.6l0.4-1.9c1-0.3,1.9-0.5,2.9-0.5c3.2,0,4.9,1.6,4.9,4.2v6.7l0.1,2.5H587.7z
		 M587.7,241.4c0-1.7-1.4-3-3.2-3c-1.7,0-3.1,1.3-3.1,3s1.4,3,3.1,3C586.3,244.4,587.7,243,587.7,241.4z"/>
</g>
<g class="st2">
	<path d="M593,244.8l0.4-1.9c1.3,0.9,2.5,1.4,3.8,1.4c1.4,0,2.3-0.8,2.3-2.1c0-0.9-0.4-1.6-2.4-2.2l-0.5-0.2
		c-2.1-0.7-3.1-2.1-3.1-3.9c0-2.1,1.6-3.6,4-3.6c1.2,0,2.5,0.4,3.6,1l-0.4,1.9c-1.2-0.8-2.4-1.1-3.2-1.1c-1.3,0-2,0.8-2,1.7
		c0,0.8,0.5,1.4,2.2,2l0.5,0.2c2.2,0.7,3.4,2.1,3.4,4c0,2.3-1.7,3.9-4.3,3.9C595.7,246.2,594.2,245.7,593,244.8z"/>
</g>
<g class="st2">
	<path d="M604.1,244.8l0.4-1.9c1.3,0.9,2.5,1.4,3.8,1.4c1.3,0,2.3-0.8,2.3-2.1c0-0.9-0.5-1.6-2.4-2.2l-0.5-0.2
		c-2.1-0.7-3.2-2.1-3.2-3.9c0-2.1,1.7-3.6,4-3.6c1.2,0,2.5,0.4,3.6,1l-0.4,1.9c-1.2-0.8-2.4-1.1-3.2-1.1c-1.3,0-2,0.8-2,1.7
		c0,0.8,0.5,1.4,2.2,2l0.5,0.2c2.2,0.7,3.5,2.1,3.5,4c0,2.3-1.7,3.9-4.3,3.9C606.8,246.2,605.3,245.7,604.1,244.8z"/>
	<path d="M627.2,241.8l0.8,1.9c-1.6,1.6-3.7,2.5-5.8,2.5c-4.1,0-7-3-7-6.9c0-3.9,3.1-6.9,7-6.9c3.2,0,5.7,2.1,6.2,5.5l-10.7,3.5
		c0.7,1.7,2.4,2.9,4.6,2.9C624.1,244.3,625.8,243.5,627.2,241.8z M617.3,239.3v0.1l8.6-2.8c-0.6-1.4-2-2.3-3.8-2.3
		C619.4,234.3,617.3,236.5,617.3,239.3z"/>
	<path d="M630.9,244.8l0.4-1.9c1.3,0.9,2.5,1.4,3.8,1.4c1.3,0,2.2-0.8,2.2-2.1c0-0.9-0.4-1.6-2.4-2.2l-0.5-0.2
		c-2.1-0.7-3.1-2.1-3.1-3.9c0-2.1,1.6-3.6,4-3.6c1.2,0,2.5,0.4,3.6,1l-0.4,1.9c-1.2-0.8-2.4-1.1-3.2-1.1c-1.3,0-2,0.8-2,1.7
		c0,0.8,0.5,1.4,2.2,2l0.5,0.2c2.2,0.7,3.4,2.1,3.4,4c0,2.3-1.7,3.9-4.3,3.9C633.6,246.2,632.1,245.7,630.9,244.8z"/>
	<path d="M662,237.7v8.2h-2.1v-8c0-2.3-1.2-3.5-3-3.5c-1.9,0-3.3,1.5-3.3,3.8v7.7h-2.1v-8c0-2.3-1.2-3.5-3-3.5
		c-1.9,0-3.3,1.5-3.3,3.8v7.7h-2.1v-13l2-0.4v1.8c0.9-1.2,2.2-1.9,3.8-1.9c1.7,0,3.2,0.8,4,2.4c0.9-1.5,2.5-2.4,4.3-2.4
		C660,232.4,662,234.3,662,237.7z"/>
	<path d="M677.3,241.8l0.8,1.9c-1.6,1.6-3.7,2.5-5.8,2.5c-4.1,0-7-3-7-6.9c0-3.9,3.1-6.9,7-6.9c3.2,0,5.7,2.1,6.2,5.5l-10.7,3.5
		c0.7,1.7,2.4,2.9,4.6,2.9C674.2,244.3,675.9,243.5,677.3,241.8z M667.4,239.3v0.1l8.6-2.8c-0.6-1.4-2-2.3-3.8-2.3
		C669.5,234.3,667.4,236.5,667.4,239.3z"/>
</g>
<g class="st2">
	<path d="M693.4,238v7.9h-2.1v-7.8c0-2.5-1.4-3.8-3.4-3.8c-2.2,0-3.8,1.6-3.8,4.1v7.5H682v-13l2-0.4v1.8c1-1.2,2.5-1.9,4.2-1.9
		C691.1,232.4,693.4,234.4,693.4,238z"/>
	<path d="M700.1,234.6v7.5c0,1.4,0.8,2.1,1.9,2.1c0.7,0,1.5-0.2,1.9-0.4v2c-0.5,0.2-1.3,0.4-2.1,0.4c-2.3,0-3.8-1.4-3.8-3.9v-7.6
		H696l0.4-1.9h1.6v-2.9l2.1-1.3v4.2h3.8v1.9H700.1z"/>
</g>
<g class="st2">
	<path d="M580.7,265.3v3.5h3v1.9h-3v11.3h-2.1v-11.3h-1.9l0.4-1.9h1.5v-3.6c0-3.2,1.9-5,4.9-5h0.3v2h-0.3
		C581.7,262,580.7,263.1,580.7,265.3z"/>
</g>
<g class="st2">
	<path d="M593.5,268.5v2.1c-3,0-4.5,1.4-4.5,4.4v6.9h-2.1v-13l2-0.4v2.2C589.8,269.3,591.3,268.5,593.5,268.5z"/>
</g>
<g class="st2">
	<path d="M603.2,281.9l-0.1-0.9c-0.9,0.8-2,1.2-3.3,1.2c-2.8,0-4.9-2.1-4.9-4.8c0-2.7,2.2-4.8,4.9-4.8c1.3,0,2.3,0.5,3.2,1.1v-0.8
		c0-1.7-0.7-2.6-2.9-2.6c-1.1,0-2.2,0.2-3.2,0.6l0.4-1.9c1-0.3,1.9-0.5,2.9-0.5c3.2,0,4.9,1.6,4.9,4.2v6.7l0.1,2.5H603.2z
		 M603.1,277.4c0-1.7-1.4-3-3.2-3c-1.7,0-3.1,1.3-3.1,3s1.4,3,3.1,3C601.8,280.4,603.1,279,603.1,277.4z"/>
	<path d="M628.3,273.7v8.2h-2.1v-8c0-2.3-1.2-3.5-3-3.5c-1.9,0-3.3,1.5-3.3,3.8v7.7h-2.1v-8c0-2.3-1.2-3.5-3-3.5
		c-1.9,0-3.3,1.5-3.3,3.8v7.7h-2.1v-13l2-0.4v1.8c0.9-1.2,2.2-1.9,3.8-1.9c1.7,0,3.2,0.8,4,2.4c0.9-1.5,2.5-2.4,4.3-2.4
		C626.3,268.4,628.3,270.3,628.3,273.7z"/>
</g>
<g class="st2">
	<path d="M643.6,277.8l0.8,1.9c-1.7,1.6-3.7,2.5-5.8,2.5c-4.1,0-7-3-7-6.9c0-3.9,3.1-6.9,7-6.9c3.2,0,5.7,2.1,6.2,5.5l-10.7,3.5
		c0.7,1.7,2.4,2.9,4.6,2.9C640.5,280.3,642.2,279.5,643.6,277.8z M633.7,275.3v0.1l8.6-2.8c-0.6-1.4-2-2.3-3.8-2.3
		C635.8,270.3,633.7,272.5,633.7,275.3z"/>
</g>
<g class="st2">
	<path d="M661.6,282.5l-4.7-9.9l-4.6,9.9l-6.1-13.8h2.3l3.8,9.1l4.6-9.8l4.6,9.8l3.8-9.1h2.3L661.6,282.5z"/>
</g>
<g class="st2">
	<path d="M669.1,275.3c0-3.9,3.1-6.9,7-6.9s7,3,7,6.9s-3.1,6.9-7,6.9S669.1,279.2,669.1,275.3z M681,275.3c0-2.8-2.1-5-4.9-5
		s-4.9,2.1-4.9,5c0,2.8,2.1,4.9,4.9,4.9S681,278.1,681,275.3z"/>
	<path d="M693.2,268.5v2.1c-3,0-4.5,1.4-4.5,4.4v6.9h-2.1v-13l2-0.4v2.2C689.5,269.3,691.1,268.5,693.2,268.5z"/>
</g>
<g class="st2">
	<path d="M703.9,281.9l-5.6-6.7v6.7h-2.1v-21.4l2.1-0.4v14.7l5.3-6.1h2.8l-5.8,6.3l6.1,6.9H703.9z"/>
</g>
<path class="st5" d="M182.5,41.5h5.9v15h14.8v5.3h-14.8v14.9h-5.9V61.8h-14.6v-5.3h14.6V41.5z"/>
<path class="st5" d="M500.7,41.5h5.9v15h14.8v5.3h-14.8v14.9h-5.9V61.8h-14.6v-5.3h14.6V41.5z"/>
</svg>
